<?xml version="1.0" encoding="utf-8"?>
<!-- Generator: Adobe Illustrator 19.2.0, SVG Export Plug-In . SVG Version: 6.00 Build 0)  -->
<svg version="1.1" id="Layer_1" xmlns="http://www.w3.org/2000/svg" xmlns:xlink="http://www.w3.org/1999/xlink" x="0px" y="0px"
	 viewBox="0 0 141.7 118.4" style="enable-background:new 0 0 141.7 118.4;" xml:space="preserve">
<style type="text/css">
	.st0{opacity:0.8;}
	.st1{fill:#A8CC36;}
</style>
<g class="st0">
	<path class="st1" d="M41.7,7.6c0,0,0.8-0.3,2.2-0.7c0.2-0.1,0.4-0.1,0.6-0.2c0.2-0.1,0.3-0.1,0.9-0.3c1-0.4,2.1-0.8,3.3-1.2
		c0.6-0.2,1.2-0.4,1.9-0.6c0.3-0.1,0.7-0.2,1-0.3L52,4.1c0.2,0,0.3-0.1,0.4-0.1c1.1-0.3,2.4-0.5,3.7-0.7c5.2-0.9,11.5-1.4,18.6-0.4
		c7,1,14.7,3.4,22,7.7c7.2,4.4,14,10.7,18.9,18.7c0.6,1,1.1,2,1.7,3.1l0.8,1.6l0.4,0.8c-0.5-0.9,0.7,1.3,0.6,1.1l0,0.1l0,0.1
		l0.1,0.2c0.6,1.8,1.2,3.6,1.8,5.4c0.2,0.7,0.4,1.4,0.6,2.1c0.2,0.7,0.4,1.4,0.5,2c0.2,1.2,0.5,2.4,0.7,3.6c0.2,1.2,0.3,2.4,0.4,3.6
		c0.1,1.2,0.2,2.4,0.2,3.6c0.1,4.9-0.6,9.7-1.8,14.4c-1.3,4.7-3.3,9.2-5.8,13.3c-2.6,4.1-5.7,7.8-9.3,11c-0.9,0.8-1.8,1.5-2.8,2.2
		c-0.9,0.8-1.9,1.3-2.9,2c-1,0.6-2,1.3-3,1.8l-3.8,1.9l-2.3,0.8l-1.3,0.4l-1.9,0.6l-1.9,0.6l-0.9,0.3l-0.8,0.2
		c-1.1,0.2-2.2,0.4-3.3,0.6c-4.5,0.5-8.9,0.4-13.1-0.3c-4.2-0.8-8.2-2.1-11.9-3.9c-3.6-1.9-6.9-4.1-9.8-6.7
		c-2.8-2.6-5.2-5.5-7.1-8.6c-1-1.5-1.7-3.1-2.5-4.6L37.2,82l-0.1-0.1l0-0.1c0,0-0.4-0.7-0.2-0.4l-0.2-0.5l-0.3-1l-0.3-1
		c-0.1-0.3-0.2-0.6-0.3-1.1c-0.3-0.9-0.5-1.7-0.7-2.6c-0.1-0.4-0.2-0.9-0.3-1.3l-0.2-1.2c-0.1-0.8-0.2-1.6-0.3-2.3
		c-0.1-0.8-0.1-1.5-0.1-2.3c-0.2-3,0.2-5.9,0.6-8.6c1.1-5.4,3.2-9.8,5.6-13.3c2.3-3.5,5-5.9,7.3-7.7c0.6-0.4,1.1-0.8,1.6-1.2
		c0.5-0.4,1.1-0.6,1.5-0.9c0.5-0.3,0.9-0.5,1.3-0.8c0.4-0.2,0.8-0.4,1.1-0.5c1.4-0.6,2.1-0.9,2.1-0.9L41.7,7.6z M55.3,34.3
		c0,0-0.6,0.5-1.7,1.5c-0.3,0.3-0.6,0.5-0.9,0.8c-0.3,0.3-0.6,0.7-1,1.1c-0.4,0.4-0.8,0.8-1.1,1.3c-0.4,0.5-0.7,1-1.1,1.5
		c-1.5,2.2-3.2,4.9-4.2,8.4c-1.1,3.4-1.6,7.3-1.2,11.4c0.3,2,0.7,4.1,1.4,6.1c0.2,0.5,0.4,1,0.5,1.5c0.2,0.5,0.5,1,0.7,1.4l0.3,0.7
		c0.1,0.2,0.3,0.4,0.4,0.6c0.3,0.4,0.5,0.8,0.7,1.2c0.1,0.2,0.3,0.5,0.5,0.7l0.6,0.8l0.6,0.8l0.3,0.4c0.2,0.3-0.2-0.4-0.1-0.3l0,0
		l0.1,0.1l0.1,0.1c0.8,0.8,1.5,1.6,2.3,2.2c1.6,1.4,3.5,2.5,5.4,3.4c1.9,0.9,4,1.4,6,1.7c2,0.3,4.1,0.2,6-0.1c1.9-0.3,3.8-1,5.4-1.8
		c0.4-0.2,0.8-0.5,1.2-0.7l0.3-0.2l0.2-0.2c0.1-0.1,0.2-0.2,0.3-0.3s0.2-0.2,0.3-0.3l0.8-0.6l1.9-1.4c-1.3,0.7-0.4,0.2-0.6,0.3l0,0
		l0.1-0.1l0.1-0.1l0.2-0.3l0.4-0.5c0.3-0.3,0.5-0.7,0.8-1c0.2-0.4,0.5-0.6,0.7-1c0.2-0.4,0.4-0.7,0.6-1c0.7-1.5,1.1-2.9,1.3-4.3
		c0.2-1.5,0.1-2.8-0.1-4.1c-0.3-1.3-0.6-2.4-1.2-3.4c-0.1-0.3-0.3-0.5-0.4-0.7c-0.2-0.2-0.2-0.5-0.5-0.7c-0.2-0.2-0.3-0.4-0.5-0.6
		c-0.1-0.2-0.1,0-0.2,0c-0.1,0-0.1,0.1-0.1,0.1c0.2,0.7-1-1.2-1.7-2.2l-0.2-0.2l-0.1-0.1l0-0.1c-0.1-0.2,1,1.9,0.5,1l-0.2-0.1
		L79.1,57c-0.2-0.1-0.3-0.3-0.6-0.3c-1.6-0.7-3-0.8-4.2-0.6c-1.2,0.2-2.1,0.7-2.7,1.2c-0.6,0.5-0.9,1.1-1,1.6c0,0.1-0.1,0.2-0.1,0.3
		c0,0,0,0,0,0l0.1,0l0.2,0c0.1,0,0.2,0,0.3,0c0.2,0,0.4-0.1,0.6-0.1c0.2-0.1-0.2,0.1-0.3,0.2c-0.2,0.1-0.3,0.2-0.5,0.3
		C69.6,60.5,69,61,69,61L55.3,34.3z"/>
</g>
</svg>
