<?xml version="1.0" encoding="utf-8"?>
<!-- Generator: Adobe Illustrator 19.2.0, SVG Export Plug-In . SVG Version: 6.00 Build 0)  -->
<svg version="1.1" id="Layer_1" xmlns="http://www.w3.org/2000/svg" xmlns:xlink="http://www.w3.org/1999/xlink" x="0px" y="0px"
	 viewBox="0 0 100 100" style="enable-background:new 0 0 100 100;" xml:space="preserve">
<style type="text/css">
	.st0{fill:#C1EF5E;}
</style>
<g>
	<path class="st0" d="M48.2,79.4c-1.8,0-3.6-0.2-5.4-0.5c-1.8-0.3-3.6-0.8-5.2-1.4c-1.7-0.6-3.3-1.2-4.8-2c-1.5-0.8-3-1.6-4.3-2.4
		c-1.3-0.8-2.5-1.7-3.5-2.6c-1-0.9-1.9-1.7-2.6-2.5c-2.1-0.5,12.2-6.9,10.4-8.1c-1.8-1.3-3.3-2.8-4.6-4.5c-1.3-1.7-2.3-3.6-3-5.6
		c-0.7-2-1.1-4.1-1.1-6.1c0-1.8,0.2-3.5,0.7-5.1c0.5-1.6,1.1-3.2,2-4.6c0.9-1.4,1.9-2.7,3.1-3.9c1.2-1.2,2.6-2.2,4.1-3
		c1.5-0.8,3.1-1.5,4.9-2c1.7-0.5,3.6-0.7,5.5-0.7s3.8,0.2,5.5,0.7c1.7,0.5,3.4,1.1,4.9,1.9s2.9,1.8,4.1,3c1.2,1.2,2.3,2.5,3.1,3.9
		c0.9,1.4,1.5,2.9,2,4.6c0.5,1.6,0.7,3.3,0.7,5.1c0,1.4-0.2,2.9-0.5,4.3c-0.3,1.4-0.8,2.8-1.5,4.1c-0.6,1.3-1.4,2.6-2.3,3.7
		c-0.9,1.2-1.9,2.2-3.1,3.2c-1.1,0.9-2.4,1.8-3.7,2.4c-1.3,0.7-19,6.6-20.5,7c0.4,1.2,1.1,2.5,2.1,3.7c1,1.2,2.1,2.3,3.5,3.3
		c1.3,1,2.8,1.8,4.5,2.4c1.6,0.6,18.2,1.9,20,1.9L48.2,79.4z M44.5,61.4c2.1-0.2,4-0.8,5.6-1.8c1.6-0.9,3-2.2,4.1-3.7
		c1.1-1.5,2-3.3,2.5-5.4c0.6-2.1,0.8-4.4,0.8-7c0-2.5-0.3-4.9-0.9-7c-0.6-2.1-1.4-3.9-2.6-5.5s-2.5-2.7-4.1-3.6
		c-1.6-0.8-3.5-1.3-5.6-1.3c-2.2,0-4.1,0.4-5.7,1.3s-3,2.1-4.1,3.6c-1.1,1.5-1.9,3.4-2.5,5.5s-0.8,4.5-0.8,7c0,2.6,0.3,5,0.9,7.1
		c0.6,2.2,1.4,4.1,2.5,5.6c1.1,1.6,2.5,2.8,4.1,3.7C40.4,61,42.3,61.4,44.5,61.4z"/>
</g>
</svg>
